# xmcd CD database file
#
# Track frame offsets:
#	150
#	15599
#	33800
#	49718
#	76500
#	87281
#	101691
#	117165
#	136691
#	153583
#	168053
#
# Disc length: 2469 seconds
#
# Revision: 2
# Processed by: cddbd v1.5.2PL0 Copyright (c) Steve Scherf et al.
# Submitted via: CDex 1.72
#
DISCID=6e09a30b
DTITLE=Fines, Rick [CDN-Arcadia-blues) - Arcadia
DYEAR=1900
DGENRE=Blues
TTITLE0=Muskoka Moon
TTITLE1=Ticket Takes Me Home
TTITLE2=Goin' Down The Road
TTITLE3=Been to the Well Before
TTITLE4=Try a Little Harder
TTITLE5=Shuttin' Down
TTITLE6=That's The Stuff
TTITLE7=I Ain't Got a Home
TTITLE8=She'll Never Know
TTITLE9=Just Got Back
TTITLE10=Six Doors Down
EXTD=
EXTT0=
EXTT1=
EXTT2=
EXTT3=
EXTT4=
EXTT5=
EXTT6=
EXTT7=
EXTT8=
EXTT9=
EXTT10=
PLAYORDER=
